HIERARCHY
ROOT Hips
{
	OFFSET -0.001795 -0.223333 0.028219
	CHANNELS 6 Xposition Yposition Zposition Zrotation Yrotation Xrotation 
	JOINT LeftUpLeg
	{
		OFFSET 0.069520 -0.091406 -0.006815
		CHANNELS 3 Zrotation Yrotation Xrotation
		JOINT LeftLeg
		{
			OFFSET 0.034277 -0.375199 -0.004496
			CHANNELS 3 Zrotation Yrotation Xrotation
			JOINT LeftFoot
			{
				OFFSET -0.013596 -0.397961 -0.043693
				CHANNELS 3 Zrotation Yrotation Xrotation
				JOINT LeftToe
				{
					OFFSET 0.026358 -0.055791 0.119288
					CHANNELS 3 Zrotation Yrotation Xrotation
					End Site
					{
						OFFSET 0.000000 0.000000 0.000000
					}
				}
			}
		}
	}
	JOINT RightUpLeg
	{
		OFFSET -0.067670 -0.090522 -0.004320
		CHANNELS 3 Zrotation Yrotation Xrotation
		JOINT RightLeg
		{
			OFFSET -0.038290 -0.382569 -0.008850
			CHANNELS 3 Zrotation Yrotation Xrotation
			JOINT RightFoot
			{
				OFFSET 0.015774 -0.398415 -0.042312
				CHANNELS 3 Zrotation Yrotation Xrotation
				JOINT RightToe
				{
					OFFSET -0.025372 -0.048144 0.123348
					CHANNELS 3 Zrotation Yrotation Xrotation
					End Site
					{
						OFFSET 0.000000 0.000000 0.000000
					}
				}
			}
		}
	}
	JOINT Spine
	{
		OFFSET -0.002533 0.108963 -0.026696
		CHANNELS 3 Zrotation Yrotation Xrotation
		JOINT Spine1
		{
			OFFSET 0.005487 0.135180 0.001092
			CHANNELS 3 Zrotation Yrotation Xrotation
			JOINT Spine2
			{
				OFFSET 0.001457 0.052922 0.025425
				CHANNELS 3 Zrotation Yrotation Xrotation
				JOINT Neck
				{
					OFFSET -0.002778 0.213870 -0.042857
					CHANNELS 3 Zrotation Yrotation Xrotation
					JOINT Head
					{
						OFFSET 0.005152 0.064970 0.051349
						CHANNELS 3 Zrotation Yrotation Xrotation
						End Site
						{
							OFFSET 0.000000 0.000000 0.000000
						}
					}
				}
				JOINT LeftShoulder
				{
					OFFSET 0.078845 0.121749 -0.034090
					CHANNELS 3 Zrotation Yrotation Xrotation
					JOINT LeftArm
					{
						OFFSET 0.090977 0.030469 -0.008868
						CHANNELS 3 Zrotation Yrotation Xrotation
						JOINT LeftForeArm
						{
							OFFSET 0.259612 -0.012772 -0.027456
							CHANNELS 3 Zrotation Yrotation Xrotation
							JOINT LeftHand
							{
								OFFSET 0.249234 0.008986 -0.001171
								CHANNELS 3 Zrotation Yrotation Xrotation
								End Site
								{
									OFFSET 0.000000 0.000000 0.000000
								}
							}
						}
					}
				}
				JOINT RightShoulder
				{
					OFFSET -0.081759 0.118833 -0.038615
					CHANNELS 3 Zrotation Yrotation Xrotation
					JOINT RightArm
					{
						OFFSET -0.096012 0.032551 -0.009143
						CHANNELS 3 Zrotation Yrotation Xrotation
						JOINT RightForeArm
						{
							OFFSET -0.253742 -0.013329 -0.021401
							CHANNELS 3 Zrotation Yrotation Xrotation
							JOINT RightHand
							{
								OFFSET -0.255298 0.007772 -0.005559
								CHANNELS 3 Zrotation Yrotation Xrotation
								End Site
								{
									OFFSET 0.000000 0.000000 0.000000
								}
							}
						}
					}
				}
			}
		}
	}
}
MOTION
Frames: 10
Frame Time: 0.050000
0.340506 0.741485 -0.420798 -4.031201 -12.866053 9.380686 17.858778 6.452163 -47.314248 -7.882925 10.489018 76.984106 7.022199 10.287034 -20.388356 0.000000 0.000000 0.000000 -20.615152 0.215443 -48.188651 28.346824 -15.288173 65.062319 -9.452123 -26.495068 -15.832404 0.000000 0.000000 0.000000 2.368249 0.483268 68.630191 -4.555072 1.300508 -31.683752 -3.060024 6.099655 25.349327 17.164088 -1.328373 -54.735020 0.000000 0.000000 0.000000 -20.975118 -21.081605 9.911723 -34.449575 -21.434454 0.020592 42.680683 -40.649973 -14.194613 0.000000 0.000000 0.000000 32.038035 2.886627 1.334403 36.179371 13.186150 -2.061045 -21.953995 56.847848 -8.062437 0.000000 0.000000 0.000000 
0.340517 0.777171 -0.419537 -4.250373 -13.070203 11.130052 17.316256 5.769798 -44.939707 -8.174477 9.795971 69.581640 6.959172 11.610835 -16.717003 0.000000 0.000000 0.000000 -17.595232 1.244153 -45.362421 24.879721 -10.898432 58.201579 -9.118927 -24.962308 -15.561819 0.000000 0.000000 0.000000 2.227627 0.524030 65.131671 -4.078274 1.225847 -31.714566 -2.567954 6.989038 26.216447 16.930522 -1.426750 -53.704695 0.000000 0.000000 0.000000 -22.825227 -20.666992 9.858417 -34.310459 -20.871077 -0.162369 38.615439 -40.193695 -12.420957 0.000000 0.000000 0.000000 31.853484 2.452931 1.176535 36.823677 12.706365 -2.269448 -19.458665 54.051692 -6.276881 0.000000 0.000000 0.000000 
0.340550 0.803726 -0.419892 -4.224771 -13.698227 12.211825 16.783993 5.385116 -43.436354 -8.154768 9.106719 63.948960 6.657428 11.591530 -14.318113 0.000000 0.000000 0.000000 -15.665836 1.900851 -43.659394 22.758797 -8.316256 52.454885 -9.222125 -24.774078 -12.877520 0.000000 0.000000 0.000000 2.068308 0.737354 62.535134 -4.580067 1.306447 -31.196645 -2.520946 6.895080 26.499602 17.378373 -1.666186 -53.281998 0.000000 0.000000 0.000000 -24.156135 -20.474672 10.153326 -32.894719 -20.346505 -0.422061 36.295571 -38.532132 -10.946321 0.000000 0.000000 0.000000 32.380883 2.332060 0.807147 36.982031 12.033040 -2.402189 -16.931263 52.863988 -4.995207 0.000000 0.000000 0.000000 
0.340571 0.821859 -0.421151 -4.347897 -13.770186 12.825856 16.190978 4.898712 -42.058071 -7.486591 7.895970 59.461377 6.595991 12.070150 -12.021596 0.000000 0.000000 0.000000 -13.880069 2.327973 -41.900989 20.456559 -6.345937 47.850220 -9.135297 -24.040847 -11.331196 0.000000 0.000000 0.000000 1.934902 0.769308 60.868594 -4.137080 1.241254 -31.241855 -2.342231 7.253790 27.317209 17.484875 -1.843386 -52.631776 0.000000 0.000000 0.000000 -25.382156 -20.975067 10.650804 -32.181738 -19.891819 -0.596387 34.733203 -37.392789 -10.050295 0.000000 0.000000 0.000000 32.361861 2.319885 0.829435 37.339480 11.984880 -2.475759 -15.626112 50.917709 -4.172144 0.000000 0.000000 0.000000 
0.340526 0.832315 -0.422186 -4.699100 -14.244290 13.093221 15.859852 4.771631 -41.522588 -6.831635 7.253789 57.560921 6.250754 11.508358 -10.466387 0.000000 0.000000 0.000000 -12.811954 2.594538 -40.544466 19.594074 -5.404815 44.317222 -9.263260 -24.206257 -9.912644 0.000000 0.000000 0.000000 2.186713 0.691633 59.632991 -4.388938 1.277807 -30.843086 -2.416981 7.317666 27.278022 17.619760 -1.951246 -52.335084 0.000000 0.000000 0.000000 -26.201138 -21.149569 10.985154 -30.762987 -19.810117 -0.686426 33.262364 -36.231797 -9.217099 0.000000 0.000000 0.000000 32.510811 2.273768 0.667872 38.171534 12.024179 -2.457269 -15.360180 49.409270 -3.900817 0.000000 0.000000 0.000000 
0.340240 0.840729 -0.422298 -4.988013 -14.395827 13.828962 15.533127 4.617225 -41.218623 -6.216738 6.508222 55.209933 6.257308 11.715528 -9.929027 0.000000 0.000000 0.000000 -12.154984 2.734921 -39.657788 18.985284 -4.768165 40.682069 -9.280015 -24.118939 -8.354847 0.000000 0.000000 0.000000 2.320451 0.592668 58.337415 -4.396051 1.278988 -30.871061 -2.003863 7.725798 27.777368 17.551078 -2.137164 -51.366217 0.000000 0.000000 0.000000 -26.580995 -21.985576 11.569339 -30.748778 -19.649812 -0.732912 33.354391 -35.518668 -9.055036 0.000000 0.000000 0.000000 32.861381 2.452507 0.861830 38.305532 12.211020 -2.463469 -15.406512 48.316868 -3.793493 0.000000 0.000000 0.000000 
0.339686 0.845986 -0.421525 -5.295976 -14.951797 14.221212 15.423603 4.586002 -40.586235 -5.701450 6.193121 54.237755 6.269623 11.902390 -9.250536 0.000000 0.000000 0.000000 -11.678052 2.922186 -39.354938 18.914286 -4.467573 38.689874 -9.723614 -25.333965 -6.761930 0.000000 0.000000 0.000000 2.191022 0.787066 57.325580 -4.229429 1.255787 -30.910873 -1.738542 8.282987 28.219462 17.569634 -2.048505 -51.819589 0.000000 0.000000 0.000000 -26.689275 -21.525325 11.226073 -31.171668 -19.672008 -0.734576 33.808244 -35.677476 -9.237220 0.000000 0.000000 0.000000 33.205824 2.543268 1.021372 38.403002 12.488727 -2.444287 -15.874043 47.766572 -3.904622 0.000000 0.000000 0.000000 
0.338832 0.849923 -0.420200 -5.439245 -15.058319 14.726535 15.352884 4.510298 -40.242972 -5.594569 5.990031 53.030154 6.324575 12.115864 -9.129015 0.000000 0.000000 0.000000 -11.371779 2.965632 -38.763783 18.557562 -4.135243 36.411804 -9.703592 -25.230607 -5.918182 0.000000 0.000000 0.000000 2.127058 0.755575 55.999056 -4.059866 1.218513 -30.419290 -1.509883 8.927303 27.958447 17.670957 -2.337486 -50.295358 0.000000 0.000000 0.000000 -27.850503 -21.923479 11.472364 -30.287401 -18.574361 -0.919789 34.395201 -36.711536 -9.801897 0.000000 0.000000 0.000000 34.225438 2.845371 1.405276 37.274901 11.840528 -2.621523 -16.152602 47.714096 -4.064116 0.000000 0.000000 0.000000 
0.337677 0.851260 -0.418785 -5.624595 -15.209381 15.030892 15.552294 4.605359 -40.134785 -5.409716 5.889700 52.839268 6.362779 12.291411 -8.513014 0.000000 0.000000 0.000000 -11.225128 3.048218 -38.927805 18.623004 -4.104358 35.923979 -9.904822 -25.762046 -4.570100 0.000000 0.000000 0.000000 2.073213 0.801205 55.491337 -3.921017 1.199421 -30.182349 -1.369692 9.275590 27.892043 17.475960 -2.159195 -50.694193 0.000000 0.000000 0.000000 -27.541717 -21.787807 11.254067 -30.708312 -18.573001 -0.888373 35.508313 -37.114788 -10.310008 0.000000 0.000000 0.000000 34.299912 3.061752 1.666580 36.920336 12.162936 -2.537315 -16.561655 47.589318 -4.218830 0.000000 0.000000 0.000000 
0.336447 0.855186 -0.417556 -5.594102 -14.960471 15.063121 15.407782 4.345973 -39.335038 -5.472579 5.678375 51.383209 6.562388 12.851714 -8.370472 0.000000 0.000000 0.000000 -10.939747 3.035417 -38.488098 18.209833 -3.916773 34.934785 -9.948486 -25.783284 -3.517297 0.000000 0.000000 0.000000 1.945153 0.771548 55.106941 -3.695616 1.166516 -30.174950 -1.112470 9.606023 27.938695 17.569782 -2.191131 -50.537170 0.000000 0.000000 0.000000 -27.583518 -21.935209 11.208384 -30.892780 -18.619927 -0.841255 36.924442 -37.739178 -11.028971 0.000000 0.000000 0.000000 34.281658 3.140818 1.902617 36.466050 12.362395 -2.515349 -16.667187 48.051870 -4.297159 0.000000 0.000000 0.000000 
